<?xml version="1.0" standalone="no"?>
<!DOCTYPE svg PUBLIC "-//W3C//DTD SVG 20010904//EN" "http://www.w3.org/TR/2001/REC-SVG-20010904/DTD/svg10.dtd">
<svg version="1.0" xmlns="http://www.w3.org/2000/svg"
     width="512.000000pt" height="512.000000pt" viewBox="0 0 512.000000 512.000000"
     preserveAspectRatio="xMidYMid meet">
  <g transform="translate(0.000000,512.000000) scale(0.100000,-0.100000)" 
     fill="#000000" stroke="none">
    <!-- Снежинка с буквой А -->
    <path d="M2340 4480 c-98 -31 -177 -98 -220 -186 -22 -45 -25 -65 -25 -154 0
      -89 3 -109 25 -154 43 -88 122 -155 220 -186 45 -15 81 -20 135 -20 54 0 90
      5 135 20 98 31 177 98 220 186 22 45 25 65 25 154 0 89 -3 109 -25 154 -43
      88 -122 155 -220 186 -91 29 -179 29 -270 0z"/>
    <path d="M2340 3280 c-98 -31 -177 -98 -220 -186 -22 -45 -25 -65 -25 -154 0
      -89 3 -109 25 -154 43 -88 122 -155 220 -186 45 -15 81 -20 135 -20 54 0 90
      5 135 20 98 31 177 98 220 186 22 45 25 65 25 154 0 89 -3 109 -25 154 -43
      88 -122 155 -220 186 -91 29 -179 29 -270 0z"/>
    <path d="M1140 2880 c-98 -31 -177 -98 -220 -186 -22 -45 -25 -65 -25 -154 0
      -89 3 -109 25 -154 43 -88 122 -155 220 -186 45 -15 81 -20 135 -20 54 0 90
      5 135 20 98 31 177 98 220 186 22 45 25 65 25 154 0 89 -3 109 -25 154 -43
      88 -122 155 -220 186 -91 29 -179 29 -270 0z"/>
    <path d="M3540 2880 c-98 -31 -177 -98 -220 -186 -22 -45 -25 -65 -25 -154 0
      -89 3 -109 25 -154 43 -88 122 -155 220 -186 45 -15 81 -20 135 -20 54 0 90
      5 135 20 98 31 177 98 220 186 22 45 25 65 25 154 0 89 -3 109 -25 154 -43
      88 -122 155 -220 186 -91 29 -179 29 -270 0z"/>
    <path d="M2340 2080 c-98 -31 -177 -98 -220 -186 -22 -45 -25 -65 -25 -154 0
      -89 3 -109 25 -154 43 -88 122 -155 220 -186 45 -15 81 -20 135 -20 54 0 90
      5 135 20 98 31 177 98 220 186 22 45 25 65 25 154 0 89 -3 109 -25 154 -43
      88 -122 155 -220 186 -91 29 -179 29 -270 0z"/>
    <path d="M2340 880 c-98 -31 -177 -98 -220 -186 -22 -45 -25 -65 -25 -154 0
      -89 3 -109 25 -154 43 -88 122 -155 220 -186 45 -15 81 -20 135 -20 54 0 90
      5 135 20 98 31 177 98 220 186 22 45 25 65 25 154 0 89 -3 109 -25 154 -43
      88 -122 155 -220 186 -91 29 -179 29 -270 0z"/>
  </g>
</svg> 